<svg xmlns="http://www.w3.org/2000/svg" xmlns:xlink="http://www.w3.org/1999/xlink" viewBox="0,0,256,256" width="25px" height="25px" fill-rule="nonzero"><g fill="#ecf0f1" fill-rule="nonzero" stroke="none" stroke-width="1" stroke-linecap="butt" stroke-linejoin="miter" stroke-miterlimit="10" stroke-dasharray="" stroke-dashoffset="0" font-family="none" font-weight="none" font-size="none" text-anchor="none" style="mix-blend-mode: normal"><g transform="scale(5.12,5.12)"><path d="M17.72266,10c-7.162,0 -7.72266,0.56066 -7.72266,7.72266v14.55469c0,7.162 0.56066,7.72266 7.72266,7.72266h14.55469c7.162,0 7.72266,-0.56066 7.72266,-7.72266v-14.50781c0,-7.206 -0.56353,-7.76953 -7.76953,-7.76953zM17,11h16c5.565,0 6,0.435 6,6v16c0,5.565 -0.435,6 -6,6h-3.28711v-9.64453h3.74023l0.56055,-4.46094h-4.29883v-3.12305c0,-1.237 0.83466,-1.87109 1.72266,-1.87109c0.888,0 2.72656,-0.02539 2.72656,-0.02539v-3.99023c0,0 -1.63564,-0.18945 -3.30664,-0.18945c-1.404,0 -2.9495,0.39592 -4.1875,1.66992c-1.259,1.295 -1.44141,3.20702 -1.44141,5.54102v1.99023h-3.75v4.46094h3.75v9.64258h-8.22852c-5.565,0 -6,-0.435 -6,-6v-16c0,-5.565 0.435,-6 6,-6z"></path></g></g></svg>